<svg xmlns="http://www.w3.org/2000/svg" version="1.1" xmlns:xlink="http://www.w3.org/1999/xlink" xmlns:svgjs="http://svgjs.dev/svgjs" width="1000" height="999" viewBox="0 0 1000 999"><g transform="matrix(1,0,0,1,-0.215743440233382,-0.21552769679306039)"><svg viewBox="0 0 343 343" data-background-color="#ffffff" preserveAspectRatio="xMidYMid meet" height="999" width="1000" xmlns="http://www.w3.org/2000/svg" xmlns:xlink="http://www.w3.org/1999/xlink"><g id="tight-bounds" transform="matrix(1,0,0,1,0.0740000000000407,0.07400000000001228)"><svg viewBox="0 0 342.85155851775386 342.85155851775386" height="342.85155851775386" width="342.85155851775386"><g><svg></svg></g><g><svg viewBox="0 0 342.85155851775386 342.85155851775386" height="342.85155851775386" width="342.85155851775386"><g><path d="M0 171.426c0-94.676 76.75-171.426 171.426-171.426 94.676 0 171.426 76.75 171.426 171.426 0 94.676-76.75 171.426-171.426 171.426-94.676 0-171.426-76.75-171.426-171.426zM171.426 339.163c92.639 0 167.737-75.099 167.737-167.737 0-92.639-75.099-167.737-167.737-167.738-92.639 0-167.737 75.099-167.738 167.738 0 92.639 75.099 167.737 167.738 167.737z" data-fill-palette-color="tertiary" fill="#ff5858" stroke="transparent"></path><ellipse rx="164.56874808852186" ry="164.56874808852186" cx="171.42577925887693" cy="171.42577925887693" fill="#ff5858" stroke="transparent" stroke-width="0" fill-opacity="1" data-fill-palette-color="tertiary"></ellipse></g><g transform="matrix(1,0,0,1,64.84655864529837,117.88681206947558)"><svg viewBox="0 0 213.1584412271571 107.0779343788027" height="107.0779343788027" width="213.1584412271571"><g><svg viewBox="0 0 213.1584412271571 107.0779343788027" height="107.0779343788027" width="213.1584412271571"><g><svg viewBox="0 0 213.1584412271571 107.0779343788027" height="107.0779343788027" width="213.1584412271571"><g transform="matrix(1,0,0,1,0,66.17845919977707)"><svg viewBox="0 0 213.1584412271571 40.89947517902563" height="40.89947517902563" width="213.1584412271571"><g><svg viewBox="0 0 213.1584412271571 40.89947517902563" height="40.89947517902563" width="213.1584412271571"><g><svg viewBox="0 0 213.1584412271571 40.89947517902563" height="40.89947517902563" width="213.1584412271571"><g transform="matrix(1,0,0,1,0,0)"><svg width="213.1584412271571" viewBox="0.550000011920929 -38.150001525878906 221.47999572753906 42.5" height="40.89947517902563" data-palette-color="#ffffff"><path d="M33-37.45L33-37.7Q34.05-38.1 35.95-38.1 37.85-38.1 39.35-37.85L39.35-37.85Q37.8-26.35 36.93-17.03 36.05-7.7 35.98-7.2 35.9-6.7 35.9-6.3L35.9-6.3Q35.95-5 37.15-5L37.15-5Q40.15-5 45.5-11.9L45.5-11.9Q46.45-9.25 46.6-8.35L46.6-8.35Q44.2-4.55 40.83-2.13 37.45 0.3 34.45 0.3 31.45 0.3 30.3-1.25 29.15-2.8 29.15-4.7L29.15-4.7Q29.15-5.15 29.28-6.45 29.4-7.75 31.25-22.65L31.25-22.65 23.05-3.7 18.8-3.7 16.35-22.35 12.85-6.85Q12-3.15 10.08-1.4 8.15 0.35 5.85 0.35 3.55 0.35 2.1-1L2.1-1Q0.55-2.45 0.55-5.1L0.55-5.1Q0.55-10.4 8.75-14.15L8.75-14.15Q13.2-35.5 13.55-37.8L13.55-37.8Q14.75-38.1 16.78-38.1 18.8-38.1 19.55-38L19.55-38 19.9-38 23-14.75 33-37.45ZM4.1-5.95L4.1-5.95Q4.1-4.35 5.35-4.35L5.35-4.35Q6.2-4.35 6.75-5.7L6.75-5.7Q7.45-7.35 7.9-10.05L7.9-10.05Q4.1-7.9 4.1-5.95ZM40.5 4.35L41 0.05 68.5 0.05 67.95 4.35 40.5 4.35ZM98.9 0.1L98.9 0.1Q96.09 0.1 94.67-1.73 93.25-3.55 92.75-8.55L92.75-8.55Q92.45-11.15 92.15-15.3L92.15-15.3Q88.65-14.25 85.09-13.1L85.09-13.1 83.4-8.4Q82.9-7.05 82.7-6.48 82.5-5.9 81.97-4.75 81.45-3.6 81.07-3.08 80.7-2.55 80.02-1.75 79.34-0.95 78.65-0.6L78.65-0.6Q76.84 0.3 74.8 0.3 72.75 0.3 71.47-1.18 70.2-2.65 70.2-4.8L70.2-4.8Q70.2-5.4 70.3-6.05L70.3-6.05Q70.95-10.85 80.15-14.8L80.15-14.8Q82.75-21.45 88.8-37.2L88.8-37.2Q90.4-38.1 92.84-38.1L92.84-38.1Q93.4-38.1 93.9-38.1 94.4-38.1 95.12-38.1 95.84-38.1 96.95-37.8L96.95-37.8Q97-35.45 99.25-8.65L99.25-8.65Q99.45-6.4 99.8-5.73 100.15-5.05 101-5.05L101-5.05Q102.4-5.05 104.72-6.95 107.05-8.85 108.9-11.7L108.9-11.7 110.3-8.3 109.09-6.7Q103.84 0.1 98.9 0.1ZM91.8-19L90.95-29.4 86.59-17.25Q90.09-18.45 91.8-19L91.8-19ZM78.4-10.45Q73.75-8.1 73.75-5.85L73.75-5.85Q73.75-4.25 74.95-4.25L74.95-4.25Q75.84-4.25 76.4-5.55L76.4-5.55Q77.05-6.95 78.4-10.45L78.4-10.45ZM104.19 4.35L104.69 0.05 132.19 0.05 131.64 4.35 104.19 4.35ZM162.59 0.1L162.59 0.1Q159.79 0.1 158.37-1.73 156.94-3.55 156.44-8.55L156.44-8.55Q156.14-11.15 155.84-15.3L155.84-15.3Q152.34-14.25 148.79-13.1L148.79-13.1 147.09-8.4Q146.59-7.05 146.39-6.48 146.19-5.9 145.66-4.75 145.14-3.6 144.76-3.08 144.39-2.55 143.72-1.75 143.04-0.95 142.34-0.6L142.34-0.6Q140.54 0.3 138.49 0.3 136.44 0.3 135.16-1.18 133.89-2.65 133.89-4.8L133.89-4.8Q133.89-5.4 133.99-6.05L133.99-6.05Q134.64-10.85 143.84-14.8L143.84-14.8Q146.44-21.45 152.49-37.2L152.49-37.2Q154.09-38.1 156.54-38.1L156.54-38.1Q157.09-38.1 157.59-38.1 158.09-38.1 158.81-38.1 159.54-38.1 160.64-37.8L160.64-37.8Q160.69-35.45 162.94-8.65L162.94-8.65Q163.14-6.4 163.49-5.73 163.84-5.05 164.69-5.05L164.69-5.05Q166.09-5.05 168.41-6.95 170.74-8.85 172.59-11.7L172.59-11.7 173.99-8.3 172.79-6.7Q167.54 0.1 162.59 0.1ZM155.49-19L154.64-29.4 150.29-17.25Q153.79-18.45 155.49-19L155.49-19ZM142.09-10.45Q137.44-8.1 137.44-5.85L137.44-5.85Q137.44-4.25 138.64-4.25L138.64-4.25Q139.54-4.25 140.09-5.55L140.09-5.55Q140.74-6.95 142.09-10.45L142.09-10.45ZM167.89 4.35L168.39 0.05 195.89 0.05 195.34 4.35 167.89 4.35ZM220.53-25.2L216.78-25.2Q218.28-27.45 218.28-29.4 218.28-31.35 217.19-32.5 216.08-33.65 214.28-33.65 212.48-33.65 211.38-32.77 210.28-31.9 210.28-30.03 210.28-28.15 212.88-23.3 215.48-18.45 216.19-17.05L216.19-17.05Q218.08-13.25 218.08-9.7L218.08-9.7Q218.08-5.25 214.86-2.48 211.63 0.3 207.26 0.3 202.88 0.3 200.38-2.43 197.88-5.15 197.88-8.8L197.88-8.8Q197.88-15.55 206.23-19.95L206.23-19.95Q202.83-26.65 202.83-29.3L202.83-29.3Q202.83-33 205.81-35.58 208.78-38.15 213.11-38.15 217.44-38.15 219.73-35.95 222.03-33.75 222.03-30.35L222.03-30.35Q222.03-28.1 220.53-25.2L220.53-25.2ZM203.69-5.7Q205.03-4.25 206.96-4.25 208.88-4.25 209.96-5.38 211.03-6.5 211.03-8.7L211.03-8.7Q211.03-10.7 209.48-13.6L209.48-13.6Q209.28-14 208.73-15.08 208.19-16.15 207.94-16.6L207.94-16.6Q202.33-13.7 202.33-9.3L202.33-9.3Q202.33-7.05 203.69-5.7L203.69-5.7Z" opacity="1" transform="matrix(1,0,0,1,0,0)" fill="#ffffff" class="undefined-text-0" data-fill-palette-color="quaternary" id="text-0"></path></svg></g></svg></g></svg></g></svg></g><g transform="matrix(1,0,0,1,48.66051362056368,0)"><svg viewBox="0 0 115.83741398602976 56.52307469741341" height="56.52307469741341" width="115.83741398602976"><g><svg xmlns="http://www.w3.org/2000/svg" xmlns:xlink="http://www.w3.org/1999/xlink" version="1.0" x="0" y="0" viewBox="0.19999909400939941 25.700000762939453 99.60000610351562 48.60000228881836" enable-background="new 0 0 100 100" xml:space="preserve" height="56.52307469741341" width="115.83741398602976" class="icon-icon-0" data-fill-palette-color="quaternary" id="icon-0"><path d="M1.5 36h7.7c0.7 0 1.3-0.6 1.3-1.3l0 0V27c0-0.7-0.6-1.3-1.3-1.3l0 0H1.5c-0.7 0-1.3 0.6-1.3 1.3l0 0v7.7C0.2 35.5 0.8 36 1.5 36L1.5 36z" fill="#ffffff" data-fill-palette-color="quaternary"></path><path d="M84.5 74.3h14c0.7 0 1.3-0.6 1.3-1.3l0 0v-7.7c0-0.7-0.6-1.3-1.3-1.3l0 0h-14c-0.7 0-1.3 0.6-1.3 1.3l0 0V73C83.1 73.8 83.8 74.3 84.5 74.3L84.5 74.3z" fill="#ffffff" data-fill-palette-color="quaternary"></path><path d="M79.3 74.3H20.5c-0.7 0-1.3-0.6-1.3-1.3l0 0v-7.7c0-0.7 0.6-1.3 1.3-1.3l0 0h58.8c0.7 0 1.3 0.6 1.3 1.3l0 0V73C80.6 73.8 80 74.3 79.3 74.3L79.3 74.3z" fill="#ffffff" data-fill-palette-color="quaternary"></path><path d="M1.5 74.3h14c0.7 0 1.3-0.6 1.3-1.3l0 0v-7.7c0-0.7-0.6-1.3-1.3-1.3l0 0h-14c-0.7 0-1.3 0.6-1.3 1.3l0 0V73C0.2 73.8 0.8 74.3 1.5 74.3L1.5 74.3z" fill="#ffffff" data-fill-palette-color="quaternary"></path><path d="M1.5 48.8h12.8c0.7 0 1.3-0.6 1.3-1.3l0 0v-7.7c0-0.7-0.6-1.3-1.3-1.3l0 0H1.5c-0.7 0-1.3 0.6-1.3 1.3l0 0v7.7C0.2 48.2 0.8 48.8 1.5 48.8L1.5 48.8z" fill="#ffffff" data-fill-palette-color="quaternary"></path><path d="M83.1 48.8h15.3c0.7 0 1.3-0.6 1.3-1.3l0 0v-7.7c0-0.7-0.6-1.3-1.3-1.3l0 0H83.1c-0.7 0-1.3 0.6-1.3 1.3l0 0v7.7C82 48.2 82.5 48.8 83.1 48.8L83.1 48.8z" fill="#ffffff" data-fill-palette-color="quaternary"></path><path d="M14.2 36h7.7c0.7 0 1.3-0.6 1.3-1.3l0 0V27c0-0.7-0.6-1.3-1.3-1.3l0 0h-7.7c-0.7 0-1.3 0.6-1.3 1.3l0 0v7.7C13 35.5 13.5 36 14.2 36L14.2 36z" fill="#ffffff" data-fill-palette-color="quaternary"></path><path d="M27 36h7.7c0.7 0 1.3-0.6 1.3-1.3l0 0V27c0-0.7-0.6-1.3-1.3-1.3l0 0H27c-0.7 0-1.3 0.6-1.3 1.3l0 0v7.7C25.7 35.5 26.3 36 27 36L27 36z" fill="#ffffff" data-fill-palette-color="quaternary"></path><path d="M39.8 36h7.7c0.7 0 1.3-0.6 1.3-1.3l0 0V27c0-0.7-0.6-1.3-1.3-1.3l0 0h-7.7c-0.7 0-1.3 0.6-1.3 1.3l0 0v7.7C38.5 35.5 39 36 39.8 36L39.8 36z" fill="#ffffff" data-fill-palette-color="quaternary"></path><path d="M52.5 36h7.7c0.7 0 1.3-0.6 1.3-1.3l0 0V27c0-0.7-0.6-1.3-1.3-1.3l0 0h-7.7c-0.7 0-1.3 0.6-1.3 1.3l0 0v7.7C51.3 35.5 51.8 36 52.5 36L52.5 36z" fill="#ffffff" data-fill-palette-color="quaternary"></path><path d="M65.3 36H73c0.7 0 1.3-0.6 1.3-1.3l0 0V27c0-0.7-0.6-1.3-1.3-1.3l0 0h-7.7c-0.7 0-1.3 0.6-1.3 1.3l0 0v7.7C64 35.5 64.5 36 65.3 36L65.3 36z" fill="#ffffff" data-fill-palette-color="quaternary"></path><path d="M78 36h7.7c0.7 0 1.3-0.6 1.3-1.3l0 0V27c0-0.7-0.6-1.3-1.3-1.3l0 0H78c-0.7 0-1.3 0.6-1.3 1.3l0 0v7.7C76.8 35.5 77.3 36 78 36L78 36z" fill="#ffffff" data-fill-palette-color="quaternary"></path><path d="M90.8 36h7.7c0.7 0 1.3-0.6 1.3-1.3l0 0V27c0-0.7-0.6-1.3-1.3-1.3l0 0h-7.7c-0.7 0-1.3 0.6-1.3 1.3l0 0v7.7C89.5 35.5 90.1 36 90.8 36L90.8 36z" fill="#ffffff" data-fill-palette-color="quaternary"></path><path d="M19.3 48.8H27c0.7 0 1.3-0.6 1.3-1.3l0 0v-7.7c0-0.7-0.6-1.3-1.3-1.3l0 0h-7.7c-0.7 0-1.3 0.6-1.3 1.3l0 0v7.7C18 48.2 18.5 48.8 19.3 48.8L19.3 48.8z" fill="#ffffff" data-fill-palette-color="quaternary"></path><path d="M32 48.8h7.7c0.7 0 1.3-0.6 1.3-1.3l0 0v-7.7c0-0.7-0.6-1.3-1.3-1.3l0 0H32c-0.7 0-1.3 0.6-1.3 1.3l0 0v7.7C30.8 48.2 31.3 48.8 32 48.8L32 48.8z" fill="#ffffff" data-fill-palette-color="quaternary"></path><path d="M44.8 48.8h7.7c0.7 0 1.3-0.6 1.3-1.3l0 0v-7.7c0-0.7-0.6-1.3-1.3-1.3l0 0h-7.7c-0.7 0-1.3 0.6-1.3 1.3l0 0v7.7C43.5 48.2 44.2 48.8 44.8 48.8L44.8 48.8z" fill="#ffffff" data-fill-palette-color="quaternary"></path><path d="M57.6 48.8h7.7c0.7 0 1.3-0.6 1.3-1.3l0 0v-7.7c0-0.7-0.6-1.3-1.3-1.3l0 0h-7.7c-0.7 0-1.3 0.6-1.3 1.3l0 0v7.7C56.3 48.2 57 48.8 57.6 48.8L57.6 48.8z" fill="#ffffff" data-fill-palette-color="quaternary"></path><path d="M70.3 48.8H78c0.7 0 1.3-0.6 1.3-1.3l0 0v-7.7c0-0.7-0.6-1.3-1.3-1.3l0 0h-7.7c-0.7 0-1.3 0.6-1.3 1.3l0 0v7.7C69.1 48.2 69.6 48.8 70.3 48.8L70.3 48.8z" fill="#ffffff" data-fill-palette-color="quaternary"></path><path d="M1.5 61.6h7.7c0.7 0 1.3-0.6 1.3-1.3l0 0v-7.7c0-0.7-0.6-1.3-1.3-1.3l0 0H1.5c-0.7 0-1.3 0.6-1.3 1.3l0 0v7.7C0.2 61 0.8 61.6 1.5 61.6L1.5 61.6z" fill="#ffffff" data-fill-palette-color="quaternary"></path><path d="M14.2 61.6h7.7c0.7 0 1.3-0.6 1.3-1.3l0 0v-7.7c0-0.7-0.6-1.3-1.3-1.3l0 0h-7.7c-0.7 0-1.3 0.6-1.3 1.3l0 0v7.7C13 61 13.5 61.6 14.2 61.6L14.2 61.6z" fill="#ffffff" data-fill-palette-color="quaternary"></path><path d="M27 61.6h7.7c0.7 0 1.3-0.6 1.3-1.3l0 0v-7.7c0-0.7-0.6-1.3-1.3-1.3l0 0H27c-0.7 0-1.3 0.6-1.3 1.3l0 0v7.7C25.7 61 26.3 61.6 27 61.6L27 61.6z" fill="#ffffff" data-fill-palette-color="quaternary"></path><path d="M39.8 61.6h7.7c0.7 0 1.3-0.6 1.3-1.3l0 0v-7.7c0-0.7-0.6-1.3-1.3-1.3l0 0h-7.7c-0.7 0-1.3 0.6-1.3 1.3l0 0v7.7C38.5 61 39 61.6 39.8 61.6L39.8 61.6z" fill="#ffffff" data-fill-palette-color="quaternary"></path><path d="M52.5 61.6h7.7c0.7 0 1.3-0.6 1.3-1.3l0 0v-7.7c0-0.7-0.6-1.3-1.3-1.3l0 0h-7.7c-0.7 0-1.3 0.6-1.3 1.3l0 0v7.7C51.3 61 51.8 61.6 52.5 61.6L52.5 61.6z" fill="#ffffff" data-fill-palette-color="quaternary"></path><path d="M65.3 61.6H73c0.7 0 1.3-0.6 1.3-1.3l0 0v-7.7c0-0.7-0.6-1.3-1.3-1.3l0 0h-7.7c-0.7 0-1.3 0.6-1.3 1.3l0 0v7.7C64 61 64.5 61.6 65.3 61.6L65.3 61.6z" fill="#ffffff" data-fill-palette-color="quaternary"></path><path d="M78 61.6h7.7c0.7 0 1.3-0.6 1.3-1.3l0 0v-7.7c0-0.7-0.6-1.3-1.3-1.3l0 0H78c-0.7 0-1.3 0.6-1.3 1.3l0 0v7.7C76.8 61 77.3 61.6 78 61.6L78 61.6z" fill="#ffffff" data-fill-palette-color="quaternary"></path><path d="M90.8 61.6h7.7c0.7 0 1.3-0.6 1.3-1.3l0 0v-7.7c0-0.7-0.6-1.3-1.3-1.3l0 0h-7.7c-0.7 0-1.3 0.6-1.3 1.3l0 0v7.7C89.5 61 90.1 61.6 90.8 61.6L90.8 61.6z" fill="#ffffff" data-fill-palette-color="quaternary"></path></svg></g></svg></g><g></g></svg></g></svg></g></svg></g></svg></g><defs></defs></svg><rect width="304.915625" height="304.915625" fill="none" stroke="none" visibility="hidden"></rect></g></svg></g></svg>